PathFileType	4	(X/Y/Z)	C:/Users/beibeiliu/ov580/test_trc/User2\sequence.35_training_dense_left.trc
DataRate	CameraRate	NumFrames	NumMarkers	Units	OrigDataRate	OrigDataStartFrame	OrigNumFrames
120	120	11	19	mm	120	181	289
Frame#	Time	ThumbCMC			ThumbMCP			ThumbIP			ThumbTip			IndexMCP			IndexPIP			IndexTip			MiddleMCP			MiddlePIP			MiddleTip			RingMCP			RingPIP			RingTip			PinkyMCP			PinkyPIP			PinkyTip			BackHand1			BackHand2			BackHand3	
		X0	Y0	Z0	X1	Y1	Z1	X2	Y2	Z2	X3	Y3	Z3	X4	Y4	Z4	X5	Y5	Z5	X6	Y6	Z6	X7	Y7	Z7	X8	Y8	Z8	X9	Y9	Z9	X10	Y10	Z10	X11	Y11	Z11	X12	Y12	Z12	X13	Y13	Z13	X14	Y14	Z14	X15	Y15	Z15	X16	Y16	Z16	X17	Y17	Z17	X18	Y18	Z18	
180	1.5	-155.176	-54.2394	99.3875	-134.393	-57.6118	77.8103	-123.446	-62.9123	38.615	-131.813	-72.7025	14.2771	-168.803	-53.2093	15.0417	-167.404	-84.1533	1.23015	-163.218	-96.82	34.7269	-184.57	-58.2889	4.05956	-182.669	-93.8944	-0.966107	-182.473	-100.761	38.4993	-211.18	-61.4272	5.53522	-202.639	-87.8661	-2.49401	-198.212	-99.2404	35.0468	-226.618	-65.0374	21.9904	-218.471	-92.4721	8.90695	-211.061	-106.548	37.1015	-214.921	-37.0408	67.413	-220.551	-31.7634	97.867	-186.231	-32.9109	87.0147	
181	1.50833	-156.252	-54.2258	98.9027	-131.605	-56.0723	73.9845	-123.276	-63.6641	42.4092	-136.812	-73.8721	15.808	-165.214	-54.4503	11.0598	-165.756	-81.7387	0.25968	-160.894	-95.4563	37.1923	-186.68	-57.3447	6.0256	-181.338	-90.6541	-2.96217	-183.1	-100.859	40.0272	-211.693	-60.5402	10.8244	-202.587	-92.1549	1.05348	-197.66	-99.9179	33.5145	-231.283	-65.579	25.2348	-215.51	-93.2133	10.9655	-211.054	-107.237	40.1382	-215.105	-37.0466	68.2563	-220.476	-33.9247	102.402	-185.637	-31.5514	83.136	
182	1.51667	-156.529	-55.4217	103.523	-131.706	-57.075	76.3665	-125.1	-65.815	40.9594	-140.253	-76.5525	19.5483	-164.083	-53.6349	15.1685	-163.533	-82.5885	0.512516	-162.144	-96.5954	37.589	-184.06	-57.1472	6.40749	-182.873	-94.8819	-0.0100601	-183.587	-102.786	36.1172	-204.168	-61.8445	8.01941	-201.49	-91.4516	1.49409	-199.3	-99.0683	38.7569	-227.204	-65.448	22.7194	-221.113	-94.3957	9.6759	-212.67	-106.409	41.6673	-216.794	-38.8024	69.1872	-218.443	-32.9533	103.247	-183.561	-32.369	87.1134	
183	1.525	-156.993	-55.1006	102.659	-130.73	-57.6004	77.8994	-125.646	-66.1984	43.4061	-148.621	-77.5361	25.2315	-165.213	-55.628	14.0598	-160.706	-88.0998	3.36427	-160.403	-98.6669	35.881	-186.007	-57.1525	8.78161	-182.347	-95.7292	0.436976	-182.2	-101.494	39.9176	-206.12	-61.5657	10.1689	-203.677	-92.9116	1.66038	-197.591	-99.9418	35.7685	-227.767	-65.2904	24.9124	-215.651	-93.9887	12.1096	-209.27	-108.343	39.0762	-212.635	-38.2285	71.8045	-220.602	-32.2636	102.135	-183.379	-32.5514	89.3334	
184	1.53333	-154.192	-54.6133	100.967	-130.649	-58.0415	78.7165	-128.676	-67.6341	44.8222	-145.508	-78.3257	26.3507	-164.116	-56.863	16.1541	-161.98	-85.2657	2.31177	-165.098	-99.8566	35.5187	-185.192	-61.5784	5.37497	-179.664	-94.1177	-1.21793	-180.678	-103.797	38.7494	-206.891	-63.5019	7.4955	-201.192	-92.2085	1.76412	-198.642	-100.331	39.2252	-225.599	-66.2936	23.0299	-214.602	-95.3365	12.2478	-213.217	-108.445	41.273	-213.757	-37.9281	69.5648	-217.008	-34.5913	102.924	-181.286	-33.0098	86.418	
185	1.54167	-153.938	-56.1062	102.211	-131.484	-57.9466	77.6474	-128.177	-67.1825	42.2308	-150.131	-78.8444	27.1079	-163.038	-59.335	13.3914	-163.365	-87.3032	2.36776	-165.129	-100.68	35.6602	-180.748	-60.9389	6.44334	-182.468	-95.4889	0.284588	-182.396	-103.348	39.1791	-205.408	-63.544	12.0191	-199.413	-92.0109	0.250628	-196.851	-100.494	37.3942	-223.271	-66.5765	27.4803	-216.552	-98.6126	13.5836	-211.119	-107.17	41.5615	-212.392	-38.2755	69.1345	-214.267	-34.4532	99.3578	-179.449	-33.8931	85.8788	
186	1.55	-151.603	-54.7206	103.095	-130.436	-58.2219	77.4143	-124.702	-69.0659	43.0979	-146.743	-80.9826	25.9715	-163.419	-59.3102	17.0499	-163.197	-91.9194	4.12493	-164.107	-102.425	34.786	-185.355	-61.2974	9.44061	-180.901	-98.5013	1.53453	-182.246	-104.693	40.2325	-203.111	-66.6164	8.14343	-202.107	-96.7404	2.86212	-199.789	-101.17	40.763	-227.168	-69.5743	22.5281	-215.349	-97.2283	12.8084	-208.03	-106.634	44.9233	-217.533	-40.2651	70.1598	-216.374	-32.8414	99.4199	-179.045	-34.1814	88.8892	
187	1.55833	-156.204	-57.2308	102.225	-132.878	-59.372	79.2717	-126.439	-70.2962	43.0297	-148.506	-81.1171	24.1862	-163.892	-61.7459	13.5857	-161.31	-89.6464	0.843711	-163.176	-103.269	38.5514	-181.168	-63.9052	6.25571	-183.644	-99.185	0.44163	-182.921	-105.696	38.9494	-202.607	-67.2246	8.25614	-199.406	-96.5962	2.97752	-198.115	-104.171	37.1984	-227.739	-70.7112	22.7446	-218.417	-101.243	13.2319	-211.318	-108.903	44.7986	-211.418	-42.0709	66.5391	-218.605	-36.1664	99.2038	-183.29	-34.7438	84.4567	
188	1.56667	-154.104	-57.2804	102.429	-130.416	-59.8385	77.1013	-127.444	-70.4042	41.8879	-151.837	-82.2759	25.7731	-162.486	-61.6777	14.8515	-160.66	-91.0926	1.71376	-164.679	-104.796	37.8317	-185.9	-62.8908	9.68099	-181.613	-98.8725	0.743564	-180.06	-104.337	43.6347	-206.662	-67.4242	9.12851	-202.991	-98.5168	3.2495	-197.717	-102.789	39.8207	-224.737	-71.1833	21.851	-219.929	-100.282	12.755	-214.416	-110.847	43.0288	-216.511	-40.3512	65.711	-217.356	-35.2179	103.223	-181.946	-34.7633	83.7332	
189	1.575	-153.993	-58.0045	101.881	-134.716	-60.9332	77.8872	-126.371	-72.0711	43.9723	-151.027	-83.3216	23.2773	-160.138	-60.6858	17.4497	-160.185	-92.7622	2.82225	-161.517	-106.852	36.1851	-183.133	-63.3132	9.19242	-183.636	-99.2913	0.639746	-183.84	-104.932	42.9106	-202.613	-67.2758	8.70047	-203.247	-100.478	4.25667	-197.19	-104.115	41.1651	-225.823	-70.4535	22.0365	-216.533	-98.4774	13.584	-210.908	-109.912	44.7712	-212.641	-39.8006	71.2418	-217.497	-34.2996	103.616	-179.465	-37.1202	87.092	
190	1.58333	-151.414	-58.188	103.044	-130.98	-61.7653	76.4747	-126.856	-72.3891	42.3959	-149.786	-82.8168	24.6788	-161.407	-62.2161	18.5809	-164.179	-91.239	3.93335	-163.087	-106.15	39.47	-182.67	-64.3192	8.33704	-180.252	-101.507	2.72805	-184.295	-105.935	42.1254	-208.264	-67.0673	11.7359	-200.746	-97.0829	2.77197	-200.076	-105.866	39.6957	-225.33	-69.9082	27.5049	-216.062	-99.6792	13.9989	-209.288	-110.912	46.3017	-215.4	-42.7592	66.3183	-218.123	-36.1899	99.1938	-178.457	-36.7135	90.2676	
